<svg width="580" height="606" viewBox="0 0 580 606" fill="none" xmlns="http://www.w3.org/2000/svg">
<path d="M20.633 125.39C27.5783 85.684 56.1218 53.5645 94.7143 41.9439C145.467 26.6614 218.476 7.64293 280.016 3.10641C339.575 -1.28407 412.749 6.0945 465.764 13.4725C509.058 19.4976 543.317 51.2349 551.913 94.1055C558.95 129.204 566.888 175.884 572.723 230.431C579.976 298.227 578.288 395.185 575.295 468.752C572.887 527.945 525.635 575.218 466.569 579.572L145.629 603.23C97.9171 606.748 53.3097 581.084 38.7855 535.859C25.981 495.989 12.1953 442.192 5.13331 379.849C-4.47643 295.014 9.14686 191.055 20.633 125.39Z" stroke="url(#paint0_linear_33212_220)" stroke-width="3"/>
<defs>
<linearGradient id="paint0_linear_33212_220" x1="0.0713462" y1="297.513" x2="586.222" y2="297.63" gradientUnits="userSpaceOnUse">
<stop stop-color="#4A86FF"/>
<stop offset="0.5" stop-color="#F5F5F5"/>
<stop offset="1" stop-color="#EF3959"/>
</linearGradient>
</defs>
</svg>
