<svg width="581" height="593" viewBox="0 0 581 593" fill="none" xmlns="http://www.w3.org/2000/svg">
<path opacity="0.65" d="M32.6853 104.749C42.1507 65.2847 72.9108 35.0542 112.521 26.2127C164.115 14.6959 238.206 1.07404 299.992 1.07404C359.79 1.07404 432.416 13.8331 484.869 25.0951C528.113 34.3799 560.662 68.8869 566.651 112.701C571.513 148.265 576.558 195.463 579.019 250.363C582.078 318.627 574.405 415.319 566.88 488.501C560.774 547.895 510.243 591.945 450.518 591.945H128.954C80.7144 591.945 37.3109 562.81 25.4804 516.114C15.1513 475.344 4.70175 420.59 1.49654 357.79C-2.86771 272.282 17.1711 169.433 32.6853 104.749Z" fill="white" fill-opacity="0.55" stroke="url(#paint0_linear_33212_219)"/>
<defs>
<linearGradient id="paint0_linear_33212_219" x1="2.52195" y1="275.219" x2="587.775" y2="311.513" gradientUnits="userSpaceOnUse">
<stop stop-color="#4A86FF"/>
<stop offset="0.5" stop-color="#F5F5F5"/>
<stop offset="1" stop-color="#EF3959"/>
</linearGradient>
</defs>
</svg>
